<mxfile host="app.diagrams.net" agent="Mozilla/5.0 (Windows NT 10.0; Win64; x64) AppleWebKit/537.36 (KHTML, like Gecko) Chrome/132.0.0.0 Safari/537.36" version="24.8.4">
  <diagram name="Page-1" id="sol5sNDAG_9ShDDWgfMa">
    <mxGraphModel dx="1434" dy="746" grid="1" gridSize="10" guides="1" tooltips="1" connect="1" arrows="1" fold="1" page="1" pageScale="1" pageWidth="827" pageHeight="1169" math="0" shadow="0">
      <root>
        <mxCell id="0" />
        <mxCell id="1" parent="0" />
        <mxCell id="OhgdCBqdcrY9D2Dgy_KO-5" value="" style="edgeStyle=orthogonalEdgeStyle;rounded=0;orthogonalLoop=1;jettySize=auto;html=1;" edge="1" parent="1" source="OhgdCBqdcrY9D2Dgy_KO-1" target="OhgdCBqdcrY9D2Dgy_KO-4">
          <mxGeometry relative="1" as="geometry" />
        </mxCell>
        <mxCell id="OhgdCBqdcrY9D2Dgy_KO-1" value="交付/实施人员提单" style="whiteSpace=wrap;html=1;" vertex="1" parent="1">
          <mxGeometry x="50" y="110" width="120" height="60" as="geometry" />
        </mxCell>
        <mxCell id="OhgdCBqdcrY9D2Dgy_KO-2" value="需求" style="text;html=1;align=center;verticalAlign=middle;resizable=0;points=[];autosize=1;strokeColor=none;fillColor=none;" vertex="1" parent="1">
          <mxGeometry x="85" y="48" width="50" height="30" as="geometry" />
        </mxCell>
        <mxCell id="OhgdCBqdcrY9D2Dgy_KO-3" value="bug" style="text;html=1;align=center;verticalAlign=middle;resizable=0;points=[];autosize=1;strokeColor=none;fillColor=none;" vertex="1" parent="1">
          <mxGeometry x="620" y="48" width="40" height="30" as="geometry" />
        </mxCell>
        <mxCell id="OhgdCBqdcrY9D2Dgy_KO-7" value="" style="edgeStyle=orthogonalEdgeStyle;rounded=0;orthogonalLoop=1;jettySize=auto;html=1;" edge="1" parent="1" source="OhgdCBqdcrY9D2Dgy_KO-4" target="OhgdCBqdcrY9D2Dgy_KO-6">
          <mxGeometry relative="1" as="geometry" />
        </mxCell>
        <mxCell id="OhgdCBqdcrY9D2Dgy_KO-4" value="主管评估工作量" style="whiteSpace=wrap;html=1;" vertex="1" parent="1">
          <mxGeometry x="50" y="200" width="120" height="60" as="geometry" />
        </mxCell>
        <mxCell id="OhgdCBqdcrY9D2Dgy_KO-9" value="" style="edgeStyle=orthogonalEdgeStyle;rounded=0;orthogonalLoop=1;jettySize=auto;html=1;" edge="1" parent="1" source="OhgdCBqdcrY9D2Dgy_KO-6" target="OhgdCBqdcrY9D2Dgy_KO-8">
          <mxGeometry relative="1" as="geometry" />
        </mxCell>
        <mxCell id="OhgdCBqdcrY9D2Dgy_KO-6" value="批准" style="whiteSpace=wrap;html=1;" vertex="1" parent="1">
          <mxGeometry x="50" y="290" width="120" height="60" as="geometry" />
        </mxCell>
        <mxCell id="OhgdCBqdcrY9D2Dgy_KO-17" value="" style="edgeStyle=orthogonalEdgeStyle;rounded=0;orthogonalLoop=1;jettySize=auto;html=1;" edge="1" parent="1" source="OhgdCBqdcrY9D2Dgy_KO-8" target="OhgdCBqdcrY9D2Dgy_KO-16">
          <mxGeometry relative="1" as="geometry" />
        </mxCell>
        <mxCell id="OhgdCBqdcrY9D2Dgy_KO-8" value="交付人员/主管提TAPD单" style="whiteSpace=wrap;html=1;" vertex="1" parent="1">
          <mxGeometry x="50" y="390" width="120" height="60" as="geometry" />
        </mxCell>
        <mxCell id="OhgdCBqdcrY9D2Dgy_KO-13" value="" style="edgeStyle=orthogonalEdgeStyle;rounded=0;orthogonalLoop=1;jettySize=auto;html=1;" edge="1" parent="1" source="OhgdCBqdcrY9D2Dgy_KO-10" target="OhgdCBqdcrY9D2Dgy_KO-12">
          <mxGeometry relative="1" as="geometry" />
        </mxCell>
        <mxCell id="OhgdCBqdcrY9D2Dgy_KO-10" value="主管调配资源流转单" style="whiteSpace=wrap;html=1;" vertex="1" parent="1">
          <mxGeometry x="60" y="770" width="120" height="60" as="geometry" />
        </mxCell>
        <mxCell id="OhgdCBqdcrY9D2Dgy_KO-12" value="" style="whiteSpace=wrap;html=1;" vertex="1" parent="1">
          <mxGeometry x="60" y="865" width="120" height="60" as="geometry" />
        </mxCell>
        <mxCell id="OhgdCBqdcrY9D2Dgy_KO-25" value="" style="edgeStyle=orthogonalEdgeStyle;rounded=0;orthogonalLoop=1;jettySize=auto;html=1;" edge="1" parent="1" source="OhgdCBqdcrY9D2Dgy_KO-16" target="OhgdCBqdcrY9D2Dgy_KO-24">
          <mxGeometry relative="1" as="geometry" />
        </mxCell>
        <mxCell id="OhgdCBqdcrY9D2Dgy_KO-16" value="需要产品介入" style="rhombus;whiteSpace=wrap;html=1;" vertex="1" parent="1">
          <mxGeometry x="35" y="480" width="150" height="80" as="geometry" />
        </mxCell>
        <mxCell id="OhgdCBqdcrY9D2Dgy_KO-18" value="交付/实施人员提出问题" style="rounded=0;whiteSpace=wrap;html=1;" vertex="1" parent="1">
          <mxGeometry x="580" y="110" width="120" height="60" as="geometry" />
        </mxCell>
        <mxCell id="OhgdCBqdcrY9D2Dgy_KO-21" value="" style="edgeStyle=orthogonalEdgeStyle;rounded=0;orthogonalLoop=1;jettySize=auto;html=1;" edge="1" parent="1" source="OhgdCBqdcrY9D2Dgy_KO-19" target="OhgdCBqdcrY9D2Dgy_KO-20">
          <mxGeometry relative="1" as="geometry" />
        </mxCell>
        <mxCell id="OhgdCBqdcrY9D2Dgy_KO-19" value="主管/相关业务负责人排查" style="whiteSpace=wrap;html=1;" vertex="1" parent="1">
          <mxGeometry x="580" y="190" width="120" height="60" as="geometry" />
        </mxCell>
        <mxCell id="OhgdCBqdcrY9D2Dgy_KO-23" value="" style="edgeStyle=orthogonalEdgeStyle;rounded=0;orthogonalLoop=1;jettySize=auto;html=1;" edge="1" parent="1" source="OhgdCBqdcrY9D2Dgy_KO-20" target="OhgdCBqdcrY9D2Dgy_KO-22">
          <mxGeometry relative="1" as="geometry" />
        </mxCell>
        <mxCell id="OhgdCBqdcrY9D2Dgy_KO-20" value="交付人员/实施提TAPD单" style="whiteSpace=wrap;html=1;" vertex="1" parent="1">
          <mxGeometry x="580" y="300" width="120" height="60" as="geometry" />
        </mxCell>
        <mxCell id="OhgdCBqdcrY9D2Dgy_KO-22" value="交付人员/实施提TAPD单" style="whiteSpace=wrap;html=1;" vertex="1" parent="1">
          <mxGeometry x="580" y="440" width="120" height="60" as="geometry" />
        </mxCell>
        <mxCell id="OhgdCBqdcrY9D2Dgy_KO-24" value="产品出需求原型" style="whiteSpace=wrap;html=1;" vertex="1" parent="1">
          <mxGeometry x="50" y="600" width="120" height="60" as="geometry" />
        </mxCell>
      </root>
    </mxGraphModel>
  </diagram>
</mxfile>
